<svg xmlns="http://www.w3.org/2000/svg" viewBox="0 0 256 256">
  <path d="M236.2 151c0-10.4-7.5-19.2-17.7-21.6.7-2.7 1-6.3.9-10.8-.1-3.6-1.2-22.7-13-40.7a71.4 71.4 0 0 0-27.1-24.2c-13.6-7-30.2-10.7-49.5-10.7h-3.6c-19.3 0-36 3.6-49.5 10.7a71.4 71.4 0 0 0-27 24.2c-11.9 18-13 37-13 40.7-.2 4.5.1 8 .8 10.8A22.7 22.7 0 0 0 19.8 151c0 9.6 6.2 17.9 15.4 21a162 162 0 0 0-1.2 22.6c.5 12.4 2.3 17.5 6.4 18.2 1.3.2 173.9.2 175.2 0 4.1-.7 5.9-5.8 6.4-18.2.2-7-.7-20.7-1.2-22.6a22.3 22.3 0 0 0 15.4-21zM43.4 118.8c.2-7 4-69 82.8-69h3.6c78.7 0 82.6 62 82.8 69a30 30 0 0 1-1 9.9H44.4a30 30 0 0 1-1-10zm171.9 74c-.3 9-1.2 12.4-1.7 13.4-3.6.3-167.6.3-171.2 0-.5-1-1.4-4.3-1.7-13.4-.1-6.5 1-18.9 1.2-19.7h172.2c.3.8 1.3 13.2 1.2 19.7zm.8-26.5H40A15.9 15.9 0 0 1 26.5 151c0-8.6 7.6-15.6 16.9-15.6h169.3c9.2 0 16.8 7 16.8 15.6 0 7.5-5.6 13.8-13.4 15.3z"/>
</svg>
