<svg xmlns="http://www.w3.org/2000/svg" viewBox="0 0 256 256">
  <path d="M227.7 119.3c-.3-.7-1.4-3.5-3.8-5.9A132.9 132.9 0 0 0 167 77.6a29.6 29.6 0 0 0-7.4-25.4c3.5-2.7 4.4-3.4 6.1-3.9 2.2-.6 3.5 0 4.6.4 2.8 1 4-2.6 2.6-4.6a6.4 6.4 0 0 0-4.8-2.7c-3-.3-6.3 1.2-9.3 3 .1-5.1-.9-11.3-5.5-14.3a3.4 3.4 0 1 0-3.7 5.7c2.2 1.4 2.7 6 2.4 10.5a29.7 29.7 0 0 0-42.5 34.5c-74.8 63-76.1 64.7-76.6 65.3-5.2 5.3-6.1 8.7-6.1 14v60.4c0 3.4 2.5 6 5.8 6 .4 0 .8 0 1.2-.2L172 203l51.9-8.7c2.3-.4 5-1.7 5-6l.4-61.6a22 22 0 0 0-1.5-7.4zm-89.8-69.9a22.9 22.9 0 1 1 0 45.8 22.9 22.9 0 0 1 0-45.8zm0 52.5c12.1 0 22.6-7.3 27.1-17.8a126 126 0 0 1 51.1 31c1 1 3.1 2.8-.8 3.5-25 4.3-167.5 27.7-169.2 28-2 .4-4.5.7-1.4-2 8.6-7.4 27.5-23.5 67.6-57.3a29.6 29.6 0 0 0 25.6 14.6zm78.1 86.9c-9.5 1.4-26 4.3-45.2 7.6-49.7 8.4-115.4 19.7-133.4 22.5-2.5.4-3.8-1.3-3.8-4.6l.9-55.8c0-3.1 3.3-3.6 3.3-3.6L217.5 125c2.5-.5 4.7-.4 4.7 2.9l-.2 54c0 3.5-.7 6-6 6.8z"/>
  <path d="M97.6 133.2c8 0 14.2-5 14.2-11.3 0-6.4-6.2-11.4-14.2-11.4-8 0-14.3 5-14.3 11.4s6.3 11.3 14.3 11.3zm0-16c4.4 0 7.5 2.5 7.5 4.7s-3.1 4.6-7.5 4.6-7.5-2.4-7.5-4.6c0-2.2 3-4.6 7.5-4.6zM173.6 118c8 0 14.3-5 14.3-11.4s-6.3-11.4-14.3-11.4-14.2 5-14.2 11.4c0 6.3 6.2 11.3 14.2 11.3zm0-16c4.4 0 7.5 2.4 7.5 4.6 0 2.1-3 4.6-7.5 4.6-4.4 0-7.5-2.5-7.5-4.6 0-2.2 3.1-4.7 7.5-4.7zM134.5 126.6c8 0 14.2-5 14.2-11.4 0-6.3-6.2-11.3-14.2-11.3-8 0-14.3 5-14.3 11.3 0 6.4 6.3 11.4 14.3 11.4zm0-16c4.4 0 7.5 2.5 7.5 4.6 0 2.2-3.1 4.7-7.5 4.7s-7.5-2.5-7.5-4.7c0-2.1 3-4.6 7.5-4.6zM42.3 179.8c1.3 0 2.5-.8 3-2 .1-.1 3.3-7 9-9 3-1 6.2-.6 9.8 1.4 7.7 4.2 11.6 5.7 15 5.6 4-.2 6.3-2.7 9-5.6 1.2-1.2 2.5-2.6 4.2-4 7.6-7 10.8-4.9 15.7-1.7 5 3.3 12 7.8 22.3-2.2 8.6-8.2 13-6 18.5-3.3 5.4 2.7 12.8 6.3 21.8-4.5 8.7-10.4 13.2-9.4 20.6-4.8 11 7 22 .1 26.4-4.4a3.4 3.4 0 0 0-5-4.7c-.3.4-8.8 9-17.9 3.4-11.5-7.2-19.5-5.5-29.3 6.2-5.6 6.7-8.3 5.4-13.6 2.7-6-3-14.2-7-26.1 4.5-6.5 6.3-9.2 4.6-14 1.5-5.3-3.5-12.5-8.2-24 2.2l-4.4 4.5c-2.5 2.5-3.3 3.4-4.5 3.4-2.4.1-7.1-2.3-11.4-4.7-5.3-3-10.5-3.6-15.3-2-8.6 3-12.7 12.4-13 12.8a3.4 3.4 0 0 0 3.2 4.7zM214 165.1c-.4.4-8.9 9-18 3.4-11.5-7.2-19.5-5.5-29.3 6.2-5.6 6.7-8.3 5.4-13.6 2.7-6-3-14.2-7-26.2 4.5-6.5 6.3-9.1 4.6-14 1.5-5.2-3.5-12.4-8.2-23.9 2.2-1.8 1.7-3.3 3.2-4.4 4.5-2.5 2.5-3.4 3.4-4.6 3.4-2.3.1-7-2.3-11.4-4.7-5.3-3-10.4-3.6-15.2-2-8.6 3-12.8 12.4-13 12.8a3.4 3.4 0 0 0 6.3 2.7c0-.1 3.1-7.1 9-9 2.9-1 6-.6 9.7 1.4 7.7 4.2 11.6 5.7 14.9 5.6 4-.2 6.4-2.7 9.2-5.6 1.1-1.2 2.4-2.6 4-4 7.7-7 10.9-4.9 15.8-1.7 5 3.3 12 7.8 22.3-2.2 8.6-8.2 13-6 18.5-3.3 5.4 2.7 12.8 6.3 21.8-4.5 8.7-10.4 13.2-9.4 20.6-4.8 11 7 22 .1 26.4-4.4a3.4 3.4 0 0 0-5-4.7z"/>
</svg>
