<svg xmlns="http://www.w3.org/2000/svg" viewBox="-116 0 511 512"><path d="M280.3 6.3c-.7-4.1-4.6-6.9-8.7-6.2l-63.4 10.5a13 13 0 0 0-10.2 8.9l-14.6 45.1H22c-6.4 0-12 3.8-14.4 9.7C4 83 0 99 .5 126c1 33.2 8.9 73.6 23.6 120.2C53 337 45 426.7 38.1 470l-.6 3.8-.2 1.1-1 5.7A26.6 26.6 0 0 0 62.6 512h130.1a26.8 26.8 0 0 0 26.3-31.5l-.9-5.2-.2-.9a543.4 543.4 0 0 1-5.7-47 7.5 7.5 0 0 0-15 1c.7 8.5 1.6 17 2.6 25.2-2 1.5-4.5 2.4-7.1 2.4h-130c-2.6 0-5-.9-7.1-2.4 6.4-52 8.5-130.7-17.2-212-17.8-56.2-22.7-95.1-22.8-121h16.6l-13 22.7a10.2 10.2 0 0 0 3.7 13.9L55.4 176a10.1 10.1 0 0 0 14-3.8L88 139.7a10.2 10.2 0 0 0-3.7-14l-8.9-5h48.3a7.5 7.5 0 1 0 0-15H16.2a88.7 88.7 0 0 1 5.3-25.8l.4-.2h156.7l-8.4 26h-11.4a7.5 7.5 0 0 0 0 15h81v5c-.9 31.7-8.6 70.7-23 116a480.9 480.9 0 0 0-21 150.7c0 4.1 3.3 7.4 7.4 7.4h.1c4.2 0 7.5-3.4 7.4-7.6-.6-52 6.3-101.2 20.5-146 19.8-62.5 24.4-105 23.5-132.7v-.4-1c-.8-19.3-4.3-31.3-6.9-37.8-2.4-5.9-8-9.7-14.3-9.7h-34.3L212 25.3l62.2-10.4c4.1-.7 6.9-4.5 6.2-8.6zM51 483.2c.8-4.2 1.6-8.9 2.3-13.8 3 1 6 1.6 9.2 1.6h130.1c3.2 0 6.3-.5 9.2-1.6l2.3 13.8a11.7 11.7 0 0 1-11.5 13.8h-130a11.8 11.8 0 0 1-9-4.2 11.6 11.6 0 0 1-2.6-9.6zm-2.6-360.8l24.2 14-14 24.1-24.1-14zm185-42.7c.1 0 .3 0 .4.2a88.6 88.6 0 0 1 5.3 25.7H186l8.4-26zm0 0"/><path d="M117.7 216.8a10.7 10.7 0 0 0 15.2-1.4l29-35a10.7 10.7 0 0 0-1.5-15.2l-35-29a10.7 10.7 0 0 0-15 1.5l-29 35a10.7 10.7 0 0 0 1.4 15.1zm1.4-66.2l28.4 23.5-23.5 28.4L95.6 179zm0 0M123 279.3l39.5 29.5a11 11 0 0 0 15.4-2.2l29.6-39.5a11 11 0 0 0-2.2-15.4L165.8 222a11 11 0 0 0-15.4 2.3l-29.6 39.5a11 11 0 0 0 2.2 15.4zm37-42.7l33 24.7-24.7 33-33-24.7zm0 0M182.6 177.2h.4l30.4-1.2a9.7 9.7 0 0 0 9.3-10l-1.2-30.4a9.7 9.7 0 0 0-10-9.3l-30.4 1.2a9.7 9.7 0 0 0-9.3 10L173 168a9.7 9.7 0 0 0 9.6 9.3zm24.1-35.7l.8 19.7-19.7.8-.8-19.7zm0 0M97.4 218.5l-32 3.2a9.7 9.7 0 0 0-8.7 10.7l3.3 32a9.7 9.7 0 0 0 10.7 8.7l32-3.2a9.7 9.7 0 0 0 8.7-10.7l-3.2-32a9.8 9.8 0 0 0-10.8-8.7zm-23 39.1l-2.2-21.5 21.5-2.2 2.2 21.6zm0 0"/></svg>