<svg xmlns="http://www.w3.org/2000/svg" viewBox="-16 0 512 512"><path d="M379 394.3H168.8a7.6 7.6 0 0 0 0 15.1h210a7.6 7.6 0 1 0 0-15.1zm0 0M379 341.2H168.8a7.6 7.6 0 0 0 0 15.1h210a7.6 7.6 0 0 0 0-15zm0 0M161.3 295.7c0 4.1 3.4 7.5 7.6 7.5h133.6a7.6 7.6 0 1 0 0-15H169a7.6 7.6 0 0 0-7.6 7.5zm0 0"/><path d="M458.7 99.1L445 84.3V31.4A31.5 31.5 0 0 0 413.5 0h-338a31.5 31.5 0 0 0-31.6 31.4v59.7H30.1A30.2 30.2 0 0 0 0 121.3v91.4A30.2 30.2 0 0 0 30.1 243H44v210.8A31.5 31.5 0 0 0 75.5 485h17.3a30.7 30.7 0 0 0 30.4 26.9h325.1c17 0 30.7-13.7 30.7-30.6V155c0-26.8-.8-34.6-20.3-55.9zm4.9 40.3H407c-8.6 0-15.6-7-15.6-15.5V58.2c10 .7 12.7 3.7 21.4 13.3 1.4 1.7 3 3.4 4.8 5.3L432 92.5l.2.2 15.3 16.7c12 13 15.2 18.5 16 30zM59 31.4c0-9 7.3-16.3 16.4-16.3h338c9 0 16.4 7.3 16.4 16.3V68l-1.2-1.3-4.7-5.2C411.6 47.6 406.2 43 384 43H123.1a30.7 30.7 0 0 0-30.7 30.6V91H59.1zm404.8 450c0 8.5-7 15.5-15.6 15.5H123.2c-8.6 0-15.6-7-15.6-15.5V371.9a7.6 7.6 0 0 0-15 0V470H75.4c-9 0-16.4-7.3-16.4-16.3V242.9h33.4v94.4a7.6 7.6 0 0 0 15.1 0v-94.4H147a7.6 7.6 0 0 0 0-15.1H30a15 15 0 0 1-15-15v-91.5a15 15 0 0 1 15-15h199a15 15 0 0 1 15 15v91.4a15 15 0 0 1-15 15h-47.6a7.6 7.6 0 1 0 0 15.2H229a30.2 30.2 0 0 0 30.2-30.2v-91.4A30.2 30.2 0 0 0 229.1 91H107.6V73.5c0-8.6 7-15.5 15.6-15.5h253.2v65.9a30.7 30.7 0 0 0 30.6 30.6h56.9v.5zm0 0"/><path d="M75.6 134.6h-18c-2.3 0-4.2.8-5.7 2.4a7.8 7.8 0 0 0-2.4 5.7v53.5c0 2.3.8 4.1 2.3 5.7a7.4 7.4 0 0 0 5.5 2.3c2 0 3.9-.8 5.4-2.3a7.4 7.4 0 0 0 2.3-5.5V181h11.6a23 23 0 0 0 17-6.3c4.2-4.2 6.3-9.8 6.3-16.6 0-7-2.2-12.6-6.7-16.9a24.3 24.3 0 0 0-17.6-6.5zm5.7 30a8.9 8.9 0 0 1-6.5 2.8H65v-19h9.9c2.6 0 4.8 1 6.5 2.9A9.6 9.6 0 0 1 84 158a9 9 0 0 1-2.7 6.5zm0 0M163.3 152.8c-2.3-5-5.4-8.9-9.5-11.9-5.7-4.1-13-6.2-22-6.2H116c-2.2 0-4.1.8-5.6 2.4a7.6 7.6 0 0 0-2.3 5.4v53c0 2.4.7 4.2 2.2 5.7 1.5 1.4 3.5 2 5.8 2h17.1c9.3 0 16.7-2.4 22.3-7.4a34.8 34.8 0 0 0 11.2-27 38 38 0 0 0-3.4-16zm-17.5 31a16.7 16.7 0 0 1-13.2 5.6h-9.1v-40.7h8.3a18 18 0 0 1 13.9 5.5c3.3 3.6 5 8.5 5 14.6 0 6.2-1.6 11.2-5 15zm0 0M184.4 204.3c2.2 0 4-.7 5.5-2.2a7.5 7.5 0 0 0 2.2-5.5v-20.4h14.7c2 0 3.8-.7 5.2-2 1.4-1.5 2.1-3 2.1-5s-.7-3.6-2.1-5a7.3 7.3 0 0 0-5.2-2H192v-13.5h17.4a6.8 6.8 0 0 0 7-7c0-2-.8-3.6-2.1-5-1.4-1.4-3-2-5-2h-24.9c-2.2 0-4.1.7-5.6 2.3a7.7 7.7 0 0 0-2.3 5.5v54.1c0 2.1.8 4 2.4 5.5a7.6 7.6 0 0 0 5.4 2.2zm0 0"/></svg>