<svg xmlns="http://www.w3.org/2000/svg" viewBox="0 0 256 256">
  <path d="M223.797 72.923c-1.636-1.159-38.396-27.782-94.427-29.195-2.649-.067-7.722.07-7.722.07-7.019.23-14.139.927-21.161 2.072-40.655 6.631-67.507 26.478-68.631 27.321a16.417 16.417 0 0 0-6.44 10.865 16.358 16.358 0 0 0 3.125 12.236 16.576 16.576 0 0 0 13.208 6.614c1.981 0 3.932-.361 5.771-1.052l11.825 18.529a3.373 3.373 0 0 0 5.805-.196 26.77 26.77 0 0 1 23.488-13.934c14.757 0 26.763 12.006 26.763 26.763 0 6.305-4.729 23.116-26.319 25.164a3.374 3.374 0 0 0-2.52 5.184l26.736 41.572a16.521 16.521 0 0 0 13.402 7.349l.067.001.261.003a16.554 16.554 0 0 0 13.362-6.828l71.285-102.782a16.525 16.525 0 0 0 16.055-6.763c5.255-7.424 3.49-17.74-3.933-22.993zm-88.928 128.655a9.784 9.784 0 0 1-7.842 3.963l-.198-.002a9.769 9.769 0 0 1-7.875-4.283l-23.904-37.17c10.813-2.312 17.133-8.013 20.64-12.721 4.764-6.395 6.461-13.671 6.461-18.348 0-18.479-15.034-33.513-33.513-33.513a33.508 33.508 0 0 0-26.398 12.869l-8.893-13.935c7.191-4.702 35.859-21.735 73.627-21.735 21.328 0 57.677 11.944 78.357 23.281l-70.462 101.594zm87.352-109.559a9.765 9.765 0 0 1-10.673 3.73l-.002-.001c-9.935-5.834-24.877-12.219-40.083-17.121-17.352-5.594-33.152-8.675-44.489-8.675-46.045 0-79.059 24.001-79.409 24.259-.215.162-3.99 1.944-5.816 1.944a9.667 9.667 0 0 1-7.808-3.913 9.653 9.653 0 0 1-1.845-7.224 9.713 9.713 0 0 1 3.808-6.427c1.069-.801 26.63-19.692 65.668-26.06a158.972 158.972 0 0 1 20.269-1.987s6.663-.08 7.429-.068c51.666.762 89.056 26.844 90.625 27.954 4.387 3.106 5.43 9.201 2.326 13.589z"/>
  <path d="M155.677 86.322c-13.95 0-25.298 11.349-25.298 25.298s11.349 25.298 25.298 25.298c13.95 0 25.298-11.349 25.298-25.298s-11.348-25.298-25.298-25.298zm0 43.847c-10.228 0-18.548-8.321-18.548-18.548s8.321-18.548 18.548-18.548c10.228 0 18.548 8.321 18.548 18.548s-8.32 18.548-18.548 18.548zM138.123 140.858c-9.3 0-16.866 7.566-16.866 16.866s7.566 16.866 16.866 16.866 16.866-7.566 16.866-16.866-7.566-16.866-16.866-16.866zm0 26.982c-5.578 0-10.116-4.538-10.116-10.116 0-5.578 4.538-10.116 10.116-10.116s10.116 4.538 10.116 10.116c0 5.578-4.538 10.116-10.116 10.116z"/>
</svg>
