<svg xmlns="http://www.w3.org/2000/svg" viewBox="0 0 256 256">
  <path d="M148.8 75.4c0-1.3.2-5.9-2.7-9.1-2.8-3-6.4-3.3-25.3-3.3a3.4 3.4 0 1 0 0 6.7c10.5 0 19.3.1 20.3 1.2.8.9 1 2.6 1 3.9-.1.9-.3 7.3 0 9.1.7 4.8.8 9.5.3 10.9-.4 1.2-1 2.6-5.1 2.3a215 215 0 0 0-10.4-.1c-3.8 0-6.5 0-8.5.2a55 55 0 0 1-4 0c-3-.7-4.6-2.4-4.6-5.1l.3-4c.3-1.6.5-3.4.5-5.2a3.4 3.4 0 1 0-6.7-.2c0 1.5-.3 3-.4 4.5a38 38 0 0 0-.5 4.9c0 6 3.9 10.5 10.1 11.7l3 .2h2.6a151 151 0 0 1 18.1-.1c6.3.4 10.2-1.8 12-6.8 1.3-3.6.4-11 0-14.1-.2-1-.1-6.7 0-7.6zM95.6 163.2c.1-1.3.2-5.9-2.7-9.1-2-2.2-5-3.3-8.9-3.3h-.2s-6.9.3-10.8.3c-1.3 0-3 0-4.7-.2-4.4-.3-7.2-.4-9.1.2a3.4 3.4 0 0 0 1.9 6.5c1-.3 4.6 0 6.7 0a89.2 89.2 0 0 0 16.3 0c1.3 0 3 .1 3.8 1 .8 1 1 2.7 1 4-.1.9-.3 7.3 0 9.1.7 4.7.8 9.5.3 10.9-.4 1.2-.9 2.6-5.1 2.3l-10.4-.2c-3.8 0-6.5.2-8.5.3a55 55 0 0 1-4 0c-3-.7-4.6-2.4-4.6-5.1 0-1.2.2-2.6.4-4a50.6 50.6 0 0 0 .5-5.9c0-1.9-1.5-3.4-3.4-3.4a3.4 3.4 0 0 0-3.4 3.4v.5c0 1.4-.2 3-.4 4.5a38 38 0 0 0-.5 4.9c0 6 4 10.4 10.2 11.6.8.2 1.8.3 2.9.3h2.6a151 151 0 0 1 18.1-.2c6.3.5 10.2-1.7 12-6.7 1.3-3.6.4-11.1 0-14.2-.2-1-.1-6.6 0-7.5z"/>
  <path d="M236 182.6c-.4-4-1-8.1-1.1-12.2-.1-4.5.3-9.1.7-13.6.3-3.7.6-7.2.6-10.5 0-9-4.8-14-8.8-16.7-4.3-3-9.1-4-11.3-4h-.6a2007.6 2007.6 0 0 1-42.8.3 21 21 0 0 0 6.3-9.4c3-8.3.5-27.8-.3-33.6-.4-3.1-.2-18.4 0-20.6.2-2.8.5-12.5-5.6-19.2-4.1-4.5-10.4-6.8-18.8-6.8h-.2c-.1 0-17.8 1-28 1h-14.3a252.4 252.4 0 0 1-20.4-.6c-8.9 0-18.4 5.5-18.4 20.8 0 3.3.3 6.8.6 10.5.4 4.4.8 9 .7 13.6-.1 4-.7 8.1-1.2 12-.5 4.3-1 8.2-1 11.9 0 8.2 3.2 14.9 9 19.4H73c-4.6 0-10.2 0-15.6-.2l-14-.2h-3.5c-12.7.4-20 8-20 20.7 0 3.3.3 6.8.6 10.6.4 4.4.8 9 .7 13.5-.1 4.1-.7 8.2-1.2 12.2-.5 4.1-1 8.1-1 11.8 0 12.9 8 22.1 21.6 24.7 2 .4 4.1.6 6.5.6 1.7 0 3.8 0 6.6-.2a527.4 527.4 0 0 1 50.4 0c11.4 0 18.3-4.5 21.8-14 3-8.4.6-28-.3-33.7-.4-3.1-.2-18.4 0-20.6.2-2.8.6-12.5-5.6-19.3l-.7-.7a370.7 370.7 0 0 1 19 0c-.8.5-1.5 1.2-2.1 1.8-6.2 6.7-5.8 16.5-5.6 19.3.2 2.2.4 17.5 0 20.6-.9 5.8-3.3 25.3-.3 33.6 3.8 10.5 11.8 14.8 25.3 13.9 2.8-.2 11-.4 25.9-.4 9.4 0 26 .8 27.6.8 2.4 0 4.5-.2 6.5-.6 13.5-2.6 21.6-11.9 21.6-24.7 0-3.7-.5-7.7-1-11.8zM119.5 202c-1.7 5-4.9 9.6-15.4 9.6-1 0-2 0-3-.2a530 530 0 0 0-54 .5c-2 0-3.7-.2-5.2-.5-4.9-1-16.2-4.6-16.2-18.1 0-3.3.5-7 1-11 .6-4 1.1-8.4 1.2-12.8.2-4.9-.2-9.7-.7-14.3-.3-3.6-.6-7-.6-10 0-9 4.5-13.6 13.5-13.9h3.3c3.8 0 8.6 0 13.8.2l15.8.2a702.2 702.2 0 0 0 28.5-.9c6.2 0 10.8 1.6 13.5 4.6 3.4 3.7 4.2 10 3.8 14.1-.2 2.3-.4 18.2.1 22.2 1.3 8.5 2.8 24.5.6 30.3zm-13-78.1l-5.1.2h-.2-.2-.1a44 44 0 0 1-5.8-.5c-4.9-.9-16.2-4.6-16.2-18 0-3.3.5-7 1-11 .5-4.2 1.1-8.4 1.2-12.8.2-5-.3-9.8-.7-14.4-.3-3.6-.6-7-.6-10 0-12.1 7.4-14 11.7-14l1.4.1c5 .4 12.8.5 19 .5h14.3c10 0 26.8-.9 28.3-1 6.3 0 11 1.6 13.7 4.6 3.4 3.7 4.2 10 3.8 14.1-.2 2.3-.4 18.3.1 22.2 1.3 8.5 2.7 24.5.6 30.3-1.8 5-4.9 9.6-15.5 9.6l-3-.1a530.2 530.2 0 0 0-47.7.2zm107.8 88.6c-1.5.3-23.3-.4-32.8-.4a530.6 530.6 0 0 0-29.4.5c-10.5 0-13.7-4.5-15.4-9.5-2.2-5.8-.7-21.8.6-30.3.5-4 .3-20 0-22.2-.3-4.2.5-10.4 3.9-14.1 2.7-3 7.4-4.6 13.7-4.6a709.8 709.8 0 0 0 60.8.5h.5c.2 0 13.4 1.5 13.4 14 0 3-.3 6.3-.6 9.9-.5 4.6-.9 9.4-.7 14.3 0 4.4.6 8.7 1.2 12.8.5 4 1 7.7 1 11 0 13.5-11.3 17.2-16.2 18.1z"/>
  <path d="M205.3 171.5v-2.3l.2-.7a3.4 3.4 0 0 0-6.8-.6v.7l-.2 3.1.5 5.2.4 4c0 2.8-1.6 4.5-4.6 5.1l-1.7.1h-2.3c-2-.1-4.7-.3-8.5-.3-5 0-8.9 0-10.4.2-4.2.3-4.7-1.1-5.1-2.3-.5-1.4-.4-6.2.3-10.9.3-1.8.1-8.2 0-9.1 0-1.3.2-3 1-4 .8-.9 2.5-1 3.8-1a277 277 0 0 0 16.3 0c2 0 4.3-.2 5.8-.1a3.4 3.4 0 0 0 .3-6.8c-1.8 0-4.2 0-6.6.2l-4.7.2a280.4 280.4 0 0 1-11-.3c-3.9 0-6.9 1-8.9 3.3-3 3.2-2.8 7.7-2.7 9v7.6c-.4 3-1.3 10.5 0 14.2 1.8 5 5.7 7.2 12 6.7a207.7 207.7 0 0 1 18 .1l2.7.1c1 0 2 0 3-.3 6.2-1.2 10-5.7 10-11.7 0-1.5-.1-3.1-.4-4.8-.2-1.5-.4-3-.4-4.6z"/>
</svg>
