<svg xmlns="http://www.w3.org/2000/svg" viewBox="0 0 256 256">
  <path d="M129.76 103.32a8.77 8.77 0 0 0 8.8-8.45 8.85 8.85 0 0 0-14.77-6.82 8.75 8.75 0 0 0-2.84 6.12 8.85 8.85 0 0 0 8.8 9.15zm-1.4-10.31a2.05 2.05 0 0 1 2.9.12 2.04 2.04 0 0 1-1.5 3.45 2.05 2.05 0 0 1-1.4-3.57zM75.05 96.7a9.89 9.89 0 0 0-9.88 9.87 9.89 9.89 0 0 0 19.75 0 9.88 9.88 0 0 0-9.87-9.87zm0 13a3.13 3.13 0 1 1 0-6.26 3.13 3.13 0 0 1 0 6.26zM237.02 166.24c-.2-.95-1.07-3.16-4.76-3.16h-8.24a3.37 3.37 0 1 0 0 6.75h.11c-7.46 4.1-19.83 10.07-31.12 15.13h-14.06a3.37 3.37 0 1 0 0 6.75h7.71l-3.77 4.95H72.59l-3.44-4.95h88.95a3.37 3.37 0 1 0 0-6.75H62.73C51.5 179.9 39.2 173.93 31.8 169.83h175.46a3.37 3.37 0 1 0 0-6.75H23.75c-3.7 0-4.57 2.2-4.77 3.16-.64 2.98 1.91 5.06 7.51 8.33 3.34 1.95 8.01 4.4 13.9 7.31 9.96 4.91 20.13 9.49 20.23 9.53l.15.06 7.28 10.49c.63.9 1.67 1.45 2.77 1.45h113.74c1.05 0 2.04-.5 2.68-1.33l8.28-10.85a720.7 720.7 0 0 0 19.95-9.35c5.93-2.9 10.63-5.37 13.99-7.31 5.63-3.27 8.2-5.35 7.56-8.33z"/>
  <path d="M89.31 154.52a3.38 3.38 0 0 0 5.66-1.45l6.72-23.7 10.8 29.46a3.37 3.37 0 0 0 5.71 1.06l22.94-26.22 1.84 22.04a3.38 3.38 0 0 0 5.4 2.42l21.04-15.85 54.3-40.88a3.38 3.38 0 0 0-.5-5.7l-83.63-42.74a3.37 3.37 0 0 0-4.9 3.29l1.12 13.39-16.18-3.7a3.38 3.38 0 0 0-4.29-3.66L30.22 87.3a3.37 3.37 0 0 0-1.46 5.6l60.55 61.62zm94.38-36a3.87 3.87 0 1 1 0-7.75 3.87 3.87 0 0 1 0 7.74zm9.05-25.85a2.06 2.06 0 1 1 0 4.12 2.06 2.06 0 0 1 0-4.12zm-8.68-9.4l6 3.07a8.82 8.82 0 1 0 11.48 8.39c0-.96-.15-1.88-.44-2.75l14.24 7.28-21.05 15.85.01-.46a10.63 10.63 0 0 0-21.23 0c0 5 3.47 9.2 8.13 10.32l-32 24.1-1.87-22.47 35.9-41.05c.56-.64.84-1.46.83-2.28zm-12.32-6.3l-29.1-6.63-.71-8.6 29.8 15.23zm-13 9.94a4.73 4.73 0 1 1-9.46 0 4.73 4.73 0 0 1 9.46 0zm-40.73-14.4l27.85 6.34a11.49 11.49 0 0 0 8.16 19.54 11.49 11.49 0 0 0 10.85-15.2l9.33 2.12-57.33 65.85-11.93-32.57L118 72.5zM60.43 90.44a1.5 1.5 0 1 1-.01 3 1.5 1.5 0 0 1 0-3zm-6.94-2.96a8.26 8.26 0 1 0 15.18 4.46c0-3.33-1.98-6.2-4.82-7.5l47.53-13.98-21.32 75.18-52.54-53.46 15.97-4.7z"/>
</svg>
