<svg xmlns="http://www.w3.org/2000/svg" viewBox="0 0 512 512"><path d="M507.4 370.5c-1.4-2.3-9.9-20.8-50.8-58.8-43-39.9-37.2-33.4 14.5-102.2 31.4-42 44-67.5 40-78.5-3.7-10.4-26.8-7.7-26.8-7.7l-77 .5s-5.6-.8-9.9 1.7c-4.1 2.5-6.8 8.3-6.8 8.3s-12.2 32.4-28.4 60c-34.3 58.2-48 61.3-53.6 57.7-13-8.4-9.8-33.9-9.8-52 0-56.3 8.6-79.8-16.6-86a132 132 0 0 0-36-3.5c-27.4-.3-50.7 0-63.9 6.5-8.7 4.3-15.5 13.9-11.3 14.4 5 .7 16.6 3.1 22.7 11.4 7.9 10.8 7.6 34.9 7.6 34.9s4.5 66.4-10.6 74.6c-10.4 5.7-24.6-5.8-55.2-58.7-15.7-27-27.5-57-27.5-57s-2.3-5.5-6.3-8.5c-5-3.6-11.9-4.7-11.9-4.7l-73.1.4s-11 .3-15 5c-3.6 4.3-.3 13.1-.3 13.1s57.3 134 122 201.6c59.6 61.9 127.1 57.8 127.1 57.8h30.6s9.2-1 14-6.1c4.3-4.7 4.1-13.4 4.1-13.4s-.6-41.1 18.5-47.1c18.8-6 43 39.6 68.5 57.2 19.3 13.3 34 10.4 34 10.4l68.4-1s35.8-2.2 18.8-30.3z"/></svg>
