<svg version="1.1" xmlns="http://www.w3.org/2000/svg" xmlns:xlink="http://www.w3.org/1999/xlink" x="0px" y="0px" viewBox="-6 0 633.6 233.2" enable-background="new 0 0 623.6 193.2" xml:space="preserve">
<path fill="#D71920" d="M135.2,21.7C123.4,10,108.7,3,91.2,0.8C90,18.5,89,34.7,89,36.6c0,4.3,3,5.9,4.3,6.5
	c13.4,5.5,20.6,15.9,20.6,27.8l-5.5,92.9h-2.8v-57.9c0-7.1-7.1-9.5-7.4-16.8c-0.3-5.7-0.5-12.8-0.7-15.7c0.6,0,1.1-0.4,1.1-1V65
	c0-0.5-0.5-1-1.1-1h-7.1c-0.6,0-1.1,0.4-1.1,1v7.3c0,0.5,0.5,1,1.1,1c-0.1,2.9-0.4,10-0.7,15.7c-0.4,7.3-7.4,9.7-7.4,16.8l-1.8,57.9
	h-2h-2.1l-1.8-57.9c0-7.1-7-9.5-7.4-16.8c-0.3-5.7-0.5-12.8-0.7-15.7c0.6,0,1.1-0.4,1.1-1V65c0-0.5-0.5-1-1.1-1h-7.1
	c-0.6,0-1.1,0.4-1.1,1v7.3c0,0.5,0.5,1,1.1,1c-0.1,2.9-0.4,10-0.7,15.7c-0.4,7.3-7.4,9.7-7.4,16.8v57.9h-2.8l-5.5-92.9
	c0-11.9,7.2-22.3,20.5-27.8c1.4-0.6,4.4-2.4,4.4-6.5c0-1.8-1.1-18-2.3-35.8C48.3,3,33.6,10,21.8,21.7C7.3,36.3,0,55.9,0,80.5v32
	c0,24.6,7.3,44.2,21.8,58.8c14.6,14.6,33.4,21.8,56.7,21.8c0,0,0,0,0,0c23.2,0,42.1-7.3,56.6-21.8c14.5-14.6,21.8-34.2,21.8-58.8
	v-32C157,55.9,149.7,36.3,135.2,21.7z"></path>
                <path fill="#FFFFFF" d="M68.1,36.6c0,4.2-3,6-4.4,6.5C50.3,48.6,43.1,59,43.1,70.9l5.5,92.9h2.8v-57.9c0-7.1,7-9.5,7.4-16.8
	c0.3-5.7,0.5-12.8,0.7-15.7c-0.6,0-1.1-0.4-1.1-1V65c0-0.5,0.5-1,1.1-1h7.1c0.6,0,1.1,0.4,1.1,1v7.3c0,0.5-0.5,1-1.1,1
	c0.1,2.9,0.4,10,0.7,15.7c0.4,7.3,7.4,9.7,7.4,16.8l1.8,57.9h2.1h2l1.8-57.9c0-7.1,7-9.5,7.4-16.8c0.3-5.7,0.5-12.8,0.7-15.7
	c-0.6,0-1.1-0.4-1.1-1V65c0-0.5,0.5-1,1.1-1h7.1c0.6,0,1.1,0.4,1.1,1v7.3c0,0.5-0.5,1-1.1,1c0.1,2.9,0.4,10,0.7,15.7
	c0.3,7.3,7.4,9.7,7.4,16.8v57.9h2.8l5.5-92.9c0-11.9-7.2-22.3-20.6-27.8c-1.4-0.6-4.3-2.2-4.3-6.5c0-1.9,1.1-18.1,2.3-35.8
	c0.7,0.1,1.3,0.2,2,0.3C88.6,0.4,83.6,0,78.5,0c-5,0-9.8,0.4-14.3,1c0.5-0.1,1.1-0.2,1.6-0.2C67,18.5,68.1,34.7,68.1,36.6z"></path>
                <g>
                    <path fill="#D71920" d="M273.5,128.7V81.2c0-10.2,2.9-18,8.6-23.5c5.7-5.5,12.9-8.3,21.6-8.3c8.3,0,14.8,3.3,19.5,9.9
		c4.7-6.6,11.3-9.9,19.7-9.9c8.8,0,16,2.7,21.7,8.2c5.7,5.5,8.5,13.3,8.5,23.6v47.5H352v-46c0-10.3-3-15.4-9-15.4c-6,0-9,6-9,17.9
		v43.5h-21.2V85.2c0-11.9-3-17.9-9-17.9c-6,0-9,5.1-9,15.4v46H273.5z"></path>
                    <path fill="#D71920" d="M379.4,103.1c0-7.9,2.7-13.9,8.1-17.9c5.4-4,12.8-6.1,22.1-6.1h9.6v-1.8c0-3.6-0.8-6.3-2.5-8.1
		c-1.7-1.9-4-2.8-7.1-2.8c-6.1,0-13.3,1.3-21.5,3.8l-4.6-16.7c10.9-3.4,19.5-5,26.1-5c9.2,0,16.6,2.7,22.3,8
		c5.7,5.3,8.5,12.3,8.5,20.9v25.8c0,7.6-3,13.9-9,19c-6,5.1-13.2,7.6-21.5,7.6c-8.7,0-15.9-2.5-21.8-7.6
		C382.3,117.1,379.4,110.8,379.4,103.1z M400.8,102.9c0,2.4,0.7,4.4,2.2,6.2c1.5,1.8,3.7,2.7,6.8,2.7c2.9,0,5.1-0.9,6.8-2.7
		c1.7-1.8,2.5-3.8,2.5-6v-9.2h-9.8C403.7,93.9,400.8,96.9,400.8,102.9z"></path>
                    <path fill="#D71920" d="M447.5,127.8V78.3c0-8.8,3-16,9-21.5c6-5.6,13.4-8.4,22.4-8.4c5,0,9.9,0.8,14.7,2.4l-4,17.2
		c-4-1.1-7.5-1.6-10.5-1.6c-3.3,0-5.8,1.1-7.7,3.3c-1.9,2.2-2.8,5.1-2.8,8.7v49.4H447.5z"></path>
                    <path fill="#D71920" d="M497.9,127.8V19.4h21.2v59.8l7.1-2.4c2.6-0.9,4.4-3.6,5.5-8l4.6-18.5h20.6l-6.1,23.4
		c-1.1,4.3-2.3,7.8-3.7,10.3c-1.4,2.5-3.3,4.5-5.8,6l19.5,37.7h-23.4l-14.5-30.6l-3.9,1.3v29.3H497.9z"></path>
                    <path fill="#D71920" d="M557.6,95.8V82.3c0-10.4,3.1-18.6,9.2-24.7c6.1-6.1,14.1-9.2,23.8-9.2c9.8,0,17.7,3.1,23.8,9.2
		c6.1,6.1,9.2,14.4,9.2,24.7v13.5c0,10.4-3.1,18.6-9.2,24.7c-6.1,6.1-14.1,9.2-23.8,9.2c-9.8,0-17.7-3.1-23.8-9.2
		C560.7,114.4,557.6,106.2,557.6,95.8z M578.6,95.1c0,11.2,4,16.7,12,16.7c8,0,12-5.6,12-16.7v-12c0-11.2-4-16.7-12-16.7
		c-8,0-12,5.6-12,16.7V95.1z"></path>
                </g>
                <g>
                    <path fill="#00984A" d="M246.5,40.1c-1.8,0-3.4-0.6-4.7-1.9c-1.3-1.3-2-2.8-2-4.7c0-1.8,0.7-3.3,2-4.6c1.3-1.3,2.9-1.9,4.7-1.9
		c1.8,0,3.3,0.6,4.7,1.9c1.3,1.3,2,2.8,2,4.6c0,1.8-0.7,3.3-2,4.6C249.8,39.4,248.2,40.1,246.5,40.1z M241.1,109.8V50.2h10.6v59.6
		H241.1z"></path>
                    <path fill="#00984A" d="M180.2,86.4V73.7c0-8.1,2.2-14.3,6.5-18.6c4.4-4.3,9.8-6.4,16.2-6.4c4.7,0,9.3,1.4,13.7,4.2V25.2h10.5v61.3
		c0,7.7-2.2,13.8-6.7,18.2c-4.5,4.4-10,6.6-16.6,6.6c-6.6,0-12.2-2.2-16.8-6.6C182.5,100.2,180.2,94.2,180.2,86.4z M190.9,85.9
		c0,5.2,1.2,9.2,3.6,12c2.4,2.7,5.5,4.1,9.4,4.1c3.9,0,7-1.4,9.3-4.1c2.4-2.7,3.5-6.7,3.5-12V62.2c-4.6-2.7-8.9-4-12.7-4
		c-3.9,0-7.1,1.3-9.5,3.9c-2.4,2.6-3.6,6.7-3.6,12.3V85.9z"></path>
                    <rect x="183.7" y="120" fill="#00984A" width="68.1" height="8.7"></rect>
                </g>
                <g>
                    <g class="thinborder">
                        <path fill="#00984A" d="M197.6,150.8v16.5h-4.4v-6.1c0-0.6,0.1-1.6,0.2-3.2l-5.8,9.3h-3.8v-16.5h4.4v6.2c0,0.5-0.1,1.6-0.2,3.1
			l5.8-9.3H197.6z"></path>
                        <path fill="#00984A" d="M210.6,167.2v-12.7h-3.9v-3.7H219v3.7h-3.9v12.7H210.6z"></path>
                        <path fill="#00984A" d="M228.8,166.1c-1-1-1.5-2.4-1.5-4.1c0-1.7,0.6-2.9,1.7-3.8c1.2-0.9,2.7-1.3,4.7-1.3h2v-0.4
			c0-0.8-0.2-1.3-0.5-1.7c-0.4-0.4-0.9-0.6-1.5-0.6c-1.3,0-2.8,0.3-4.6,0.8l-1-3.6c2.3-0.7,4.2-1.1,5.5-1.1c2,0,3.5,0.6,4.7,1.7
			c1.2,1.1,1.8,2.6,1.8,4.4v5.5v5.3h-3.9l-0.3-0.9c-0.7,0.9-1.7,1.3-3.1,1.3C231.2,167.6,229.8,167.1,228.8,166.1z M231.9,162
			c0,0.5,0.2,0.9,0.5,1.3c0.3,0.4,0.8,0.6,1.4,0.6c0.6,0,1.1-0.2,1.5-0.6c0.4-0.4,0.5-0.8,0.5-1.3v-2h-2.1
			C232.5,160,231.9,160.7,231.9,162z"></path>
                        <path fill="#00984A" d="M249,167.2l2.1-10.5c0.4-1.9,1-3.3,2-4.4c1-1,2.3-1.6,4.1-1.6h6v16.5h-4.5v-12.7h-0.9
			c-1.1,0-1.8,0.8-2.2,2.5l-2.1,10.2H249z"></path>
                        <path fill="#00984A" d="M287,161.7c0,1.8-0.6,3.1-1.8,4.1c-1.2,1-2.8,1.4-4.7,1.4h-6.8v-16.5h4.5v5.8h2.4c2,0,3.5,0.4,4.7,1.3
			C286.4,158.7,287,160,287,161.7z M282.4,161.9c0-1.2-0.6-1.9-1.8-1.9h-2.4v3.7h2.3C281.8,163.7,282.4,163.1,282.4,161.9z"></path>
                        <path fill="#00984A" d="M295.4,156.1c0-1.7,0.6-3.1,1.8-4c1.2-0.9,2.8-1.4,4.7-1.4h6.5v16.5h-4.5v-5.9h-1.4l-2.4,5.9h-5l3.1-6.6
			C296.3,159.8,295.4,158.3,295.4,156.1z M299.9,156.2c0,1.3,0.6,2,1.8,2h2.1v-4h-2c-0.7,0-1.1,0.2-1.4,0.6
			C300.1,155.1,299.9,155.6,299.9,156.2z"></path>
                        <path fill="#00984A" d="M327.5,150.8h4.5v16.5h-4.5v-6.7H323v6.7h-4.5v-16.5h4.5v6h4.5V150.8z"></path>
                        <path fill="#00984A" d="M341.9,160.4v-2.9c0-2.4,0.7-4.2,2-5.4c1.3-1.2,3.1-1.8,5.3-1.8c1.5,0,3.1,0.3,4.8,0.8l-0.9,3.6
			c-1.4-0.4-2.7-0.6-3.6-0.6c-1,0-1.8,0.3-2.3,0.8c-0.5,0.5-0.8,1.4-0.8,2.6v2.9c0,1.2,0.3,2.1,0.8,2.6c0.5,0.5,1.3,0.8,2.3,0.8
			c1,0,2.2-0.2,3.6-0.6l1,3.6c-1.8,0.5-3.4,0.8-4.8,0.8c-2.2,0-4-0.6-5.3-1.8C342.6,164.7,341.9,162.9,341.9,160.4z"></path>
                        <path fill="#00984A" d="M363.4,167.2v-16.5h4.5v6.1l2.1-0.5c0.5-0.2,0.9-0.8,1.2-1.7l1-3.9h4.4l-1.3,5c-0.2,0.9-0.5,1.7-0.8,2.2
			c-0.3,0.5-0.7,1-1.2,1.3l4.2,8h-5l-3.1-6.5l-1.4,0.3v6.2H363.4z"></path>
                        <path fill="#00984A" d="M399.9,150.8v16.5h-4.4v-6.1c0-0.6,0.1-1.6,0.2-3.2l-5.8,9.3H386v-16.5h4.4v6.2c0,0.5-0.1,1.6-0.2,3.1
			l5.8-9.3H399.9z"></path>
                        <path fill="#00984A" d="M424.1,150.8v16.5h-4.4v-6.1c0-0.6,0.1-1.6,0.2-3.2l-5.8,9.3h-3.8v-16.5h4.4v6.2c0,0.5-0.1,1.6-0.2,3.1
			l5.8-9.3H424.1z M418.7,144.1l2.8,0.3c0,1.3-0.4,2.3-1.3,3c-0.8,0.7-1.9,1.1-3.1,1.1c-1.2,0-2.2-0.4-3-1.1c-0.8-0.7-1.2-1.7-1.3-3
			l2.8-0.3c0.1,0.5,0.2,0.9,0.5,1.3c0.3,0.3,0.6,0.5,1,0.5C418,145.8,418.5,145.2,418.7,144.1z"></path>
                        <path fill="#00984A" d="M455.7,150.4c1.7,0,3.1,0.6,4.2,1.8c1.1,1.2,1.6,2.9,1.6,5.1v3.5c0,2.2-0.6,3.9-1.9,5.1
			c-1.3,1.2-2.8,1.8-4.6,1.8c-1,0-1.9-0.3-2.8-0.8v7h-4.5v-23.1h3.7l0.5,1.4c0.5-0.6,1-1.1,1.6-1.4
			C454,150.5,454.7,150.4,455.7,150.4z M452.2,163.3c0.9,0.4,1.7,0.6,2.4,0.6c1.6,0,2.4-1.1,2.4-3.3v-3.1c0-1-0.2-1.9-0.7-2.4
			c-0.4-0.6-1-0.8-1.7-0.8c-0.7,0-1.3,0.3-1.7,0.8c-0.5,0.6-0.7,1.4-0.7,2.4V163.3z"></path>
                        <path fill="#00984A" d="M470.9,160.5v-3.2c0-2.2,0.6-3.9,1.9-5.1c1.3-1.2,2.9-1.8,4.8-1.8c1.9,0,3.5,0.6,4.8,1.8
			c1.3,1.2,1.9,2.7,1.9,4.6v3.6h-9v0.2c0,2.2,1,3.3,2.9,3.3c1.4,0,2.9-0.3,4.5-0.8l0.9,3.6c-1.8,0.7-3.6,1-5.4,1
			c-2.2,0-4-0.6-5.4-1.9C471.5,164.6,470.9,162.8,470.9,160.5z M475.3,157.2h4.5v-0.4c0-0.7-0.2-1.3-0.6-1.8
			c-0.4-0.5-0.9-0.7-1.6-0.7c-0.7,0-1.2,0.2-1.6,0.7c-0.4,0.5-0.6,1.1-0.6,1.8V157.2z"></path>
                        <path fill="#00984A" d="M493.4,160.4v-2.9c0-2.4,0.7-4.2,2-5.4c1.3-1.2,3.1-1.8,5.3-1.8c1.5,0,3.1,0.3,4.8,0.8l-0.9,3.6
			c-1.4-0.4-2.7-0.6-3.6-0.6c-1,0-1.8,0.3-2.3,0.8c-0.5,0.5-0.8,1.4-0.8,2.6v2.9c0,1.2,0.2,2.1,0.8,2.6c0.5,0.5,1.3,0.8,2.3,0.8
			c1,0,2.2-0.2,3.6-0.6l1,3.6c-1.8,0.5-3.4,0.8-4.8,0.8c-2.2,0-4-0.6-5.3-1.8C494.1,164.7,493.4,162.9,493.4,160.4z"></path>
                        <path fill="#00984A" d="M517.6,167.2v-12.7h-3.9v-3.7H526v3.7h-3.9v12.7H517.6z"></path>
                        <path fill="#00984A" d="M534.6,160.4v-2.9c0-2.2,0.7-4,2-5.3c1.3-1.3,3-2,5.1-2s3.8,0.7,5.1,2c1.3,1.3,2,3.1,2,5.3v2.9
			c0,2.2-0.7,4-2,5.3c-1.3,1.3-3,2-5.1,2s-3.8-0.7-5.1-2C535.3,164.4,534.6,162.6,534.6,160.4z M539.1,160.3c0,2.4,0.9,3.6,2.5,3.6
			c1.7,0,2.6-1.2,2.6-3.6v-2.5c0-2.4-0.9-3.6-2.6-3.6c-1.7,0-2.5,1.2-2.5,3.6V160.3z"></path>
                        <path fill="#00984A" d="M566.5,150.4c1.7,0,3.1,0.6,4.2,1.8c1.1,1.2,1.6,2.9,1.6,5.1v3.5c0,2.2-0.6,3.9-1.9,5.1
			c-1.3,1.2-2.8,1.8-4.6,1.8c-1,0-1.9-0.3-2.8-0.8v7h-4.5v-23.1h3.7l0.5,1.4c0.5-0.6,1-1.1,1.6-1.4
			C564.8,150.5,565.5,150.4,566.5,150.4z M563,163.3c0.9,0.4,1.7,0.6,2.4,0.6c1.6,0,2.4-1.1,2.4-3.3v-3.1c0-1-0.2-1.9-0.7-2.4
			c-0.4-0.6-1-0.8-1.7-0.8c-0.7,0-1.3,0.3-1.7,0.8c-0.5,0.6-0.7,1.4-0.7,2.4V163.3z"></path>
                        <path fill="#00984A" d="M582.8,166.1c-1-1-1.5-2.4-1.5-4.1c0-1.7,0.6-2.9,1.7-3.8c1.2-0.9,2.7-1.3,4.7-1.3h2v-0.4
			c0-0.8-0.2-1.3-0.5-1.7c-0.4-0.4-0.9-0.6-1.5-0.6c-1.3,0-2.8,0.3-4.6,0.8l-1-3.6c2.3-0.7,4.2-1.1,5.5-1.1c2,0,3.5,0.6,4.7,1.7
			c1.2,1.1,1.8,2.6,1.8,4.4v5.5v5.3h-3.9l-0.3-0.9c-0.7,0.9-1.7,1.3-3.1,1.3C585.2,167.6,583.8,167.1,582.8,166.1z M585.9,162
			c0,0.5,0.2,0.9,0.5,1.3c0.3,0.4,0.8,0.6,1.4,0.6c0.6,0,1.1-0.2,1.5-0.6c0.4-0.4,0.5-0.8,0.5-1.3v-2h-2.1
			C586.5,160,585.9,160.7,585.9,162z"></path>
                        <path fill="#00984A" d="M613.5,150.8h4.5v16.5h-4.5v-6.7H609v6.7h-4.5v-16.5h4.5v6h4.5V150.8z"></path>
                    </g>
                </g>
</svg>