<svg xmlns="http://www.w3.org/2000/svg" viewBox="0 0 623.6 192.4"><path fill="#9babba" d="M135.2 21A74 74 0 0 0 91.4.1c-1.2 17.7-2.3 33.8-2.3 35.7a6.7 6.7 0 0 0 4.3 6.5c13.4 5.5 20.6 15.9 20.6 27.8l-5.5 92.9h-2.9v-57.8c0-7.1-7.1-9.5-7.4-16.8l-.7-15.7h.1a1.1 1.1 0 0 0 .9-.5.6.6 0 0 0 .1-.4v-7.5a1.1 1.1 0 0 0-1.1-1h-7a1.1 1.1 0 0 0-1.1 1v7.3a1 1 0 0 0 1.1 1l-.7 15.7c-.4 7.3-7.4 9.7-7.4 16.8L80.6 163h-4.2l-1.8-57.9c0-7.1-7-9.5-7.4-16.8l-.7-15.7a1 1 0 0 0 1.1-1v-7.3a1.1 1.1 0 0 0-1.1-1h-7a1.1 1.1 0 0 0-1.1 1v7.4a.6.6 0 0 0 .1.4 1.1 1.1 0 0 0 .9.5h.1l-.7 15.7c-.4 7.3-7.4 9.7-7.4 16.8V163h-2.9L43 70.1c0-11.9 7.2-22.3 20.5-27.8a6.9 6.9 0 0 0 4.4-6.5c0-1.8-1.1-17.9-2.3-35.7l-1.4.2 1.4-.2a74.5 74.5 0 0 0-43.8 21Q.1 42.9 0 79.8v32q0 36.9 21.8 58.8c14.6 14.6 33.4 21.8 56.7 21.8s42.1-7.3 56.6-21.8 21.8-34.2 21.8-58.8v-32c.1-24.6-7.2-44.2-21.7-58.8zM273.5 128V80.5c0-10.2 2.9-18 8.6-23.5s12.9-8.3 21.6-8.3 14.8 3.3 19.5 9.9c4.7-6.6 11.3-9.9 19.7-9.9s16 2.7 21.7 8.2 8.5 13.3 8.5 23.6V128H352V82c0-10.3-3-15.4-9-15.4s-9 6-9 17.9V128h-21.2V84.5c0-11.9-3-17.9-9-17.9s-9 5.1-9 15.4v46zM379.4 102.4c0-7.9 2.7-13.9 8.1-17.9s12.8-6.1 22.1-6.1h9.6v-1.8c0-3.6-.8-6.3-2.5-8.1s-4-2.8-7.1-2.8c-6.1 0-13.3 1.3-21.5 3.8l-4.6-16.7c10.9-3.4 19.5-5 26.1-5 9.2 0 16.6 2.7 22.3 8s8.5 12.3 8.5 20.9v25.8a24 24 0 0 1-9 19 32.1 32.1 0 0 1-21.5 7.6 32 32 0 0 1-21.8-7.6 24.3 24.3 0 0 1-8.7-19.1zm21.4-.2a9.2 9.2 0 0 0 2.2 6.2c1.5 1.8 3.7 2.7 6.8 2.7a8.8 8.8 0 0 0 6.8-2.7 8.5 8.5 0 0 0 2.5-6v-9.2h-9.8c-5.6 0-8.5 3-8.5 9zM447.5 127.1V77.6c0-8.8 3-16 9-21.5s13.4-8.4 22.4-8.4a46.2 46.2 0 0 1 14.7 2.4l-4 17.2a40.1 40.1 0 0 0-10.5-1.6 9.6 9.6 0 0 0-7.7 3.3 12.8 12.8 0 0 0-2.8 8.7v49.4zM497.9 127.1V18.7h21.2v59.8l7.1-2.4c2.6-.9 4.4-3.6 5.5-8l4.6-18.5h20.6L550.8 73a44.5 44.5 0 0 1-3.7 10.3 15.9 15.9 0 0 1-5.8 6l19.5 37.7h-23.4l-14.5-30.6-3.9 1.3V127h-21.1z"/><path fill="#9babba" d="M557.6 95.1V81.6c0-10.4 3.1-18.6 9.2-24.7s14.1-9.2 23.8-9.2 17.7 3.1 23.8 9.2 9.2 14.4 9.2 24.7v13.5c0 10.4-3.1 18.6-9.2 24.7s-14.1 9.2-23.8 9.2-17.7-3.1-23.8-9.2-9.2-14.3-9.2-24.7zm21-.7c0 11.2 4 16.7 12 16.7s12-5.6 12-16.7v-12c0-11.2-4-16.7-12-16.7s-12 5.6-12 16.7zM246.5 39.4a6.4 6.4 0 0 1-4.7-1.9 6.4 6.4 0 0 1 0-9.3 6.4 6.4 0 0 1 4.7-1.9 6.6 6.6 0 0 1 4.7 1.9 6.3 6.3 0 0 1 0 9.2 6.9 6.9 0 0 1-4.7 2zm-5.4 69.7V49.5h10.6v59.6zM180.2 85.7V73c0-8.1 2.2-14.3 6.5-18.6a22.2 22.2 0 0 1 16.2-6.4 25.3 25.3 0 0 1 13.7 4.2V24.5h10.5v61.3c0 7.7-2.2 13.8-6.7 18.2a22.8 22.8 0 0 1-16.6 6.6A23.4 23.4 0 0 1 187 104a24.6 24.6 0 0 1-6.8-18.3zm10.7-.5q0 7.8 3.6 12a12 12 0 0 0 9.4 4.1 11.6 11.6 0 0 0 9.3-4.1c2.4-2.7 3.5-6.7 3.5-12V61.5c-4.6-2.7-8.9-4-12.7-4a12.4 12.4 0 0 0-9.5 3.9q-3.6 3.9-3.6 12.3zM183.7 119.3h68.1v8.7h-68.1zM197.6 150.1v16.5h-4.4v-6.1l.2-3.2-5.8 9.3h-3.8v-16.5h4.4v6.2l-.2 3.1 5.8-9.3zM210.6 166.5v-12.7h-3.9v-3.7H219v3.7h-3.9v12.7zM228.8 165.4a5.6 5.6 0 0 1-1.5-4.1 4.6 4.6 0 0 1 1.7-3.8 7.5 7.5 0 0 1 4.7-1.3h2v-.4a2.6 2.6 0 0 0-.5-1.7 2 2 0 0 0-1.5-.6 17.8 17.8 0 0 0-4.6.8l-1-3.6a21 21 0 0 1 5.5-1.1 6.6 6.6 0 0 1 4.7 1.7 5.7 5.7 0 0 1 1.8 4.4v10.8h-3.9l-.3-.9a3.6 3.6 0 0 1-3.1 1.3 5.5 5.5 0 0 1-4-1.5zm3.1-4.1a2.1 2.1 0 0 0 .5 1.3 1.7 1.7 0 0 0 1.4.6 2 2 0 0 0 1.5-.6 1.7 1.7 0 0 0 .5-1.3v-2h-2.1c-1.2 0-1.8.7-1.8 2zM249 166.5l2.1-10.5a9 9 0 0 1 2-4.4 5.5 5.5 0 0 1 4.1-1.6h6v16.5h-4.5v-12.7h-.9c-1.1 0-1.8.8-2.2 2.5l-2.1 10.2zM287 161a5 5 0 0 1-1.8 4.1 7.1 7.1 0 0 1-4.7 1.4h-6.8V150h4.5v5.8h2.4a7.5 7.5 0 0 1 4.7 1.3 4.8 4.8 0 0 1 1.7 3.9zm-4.6.2a1.7 1.7 0 0 0-1.8-1.9h-2.4v3.7h2.3c1.3 0 1.9-.6 1.9-1.8zM295.4 155.4a4.8 4.8 0 0 1 1.8-4 7.7 7.7 0 0 1 4.7-1.4h6.5v16.5h-4.5v-5.9h-1.4l-2.4 5.9h-5l3.1-6.6a4.4 4.4 0 0 1-2.8-4.5zm4.5.1c0 1.3.6 2 1.8 2h2.1v-4h-2a1.6 1.6 0 0 0-1.4.6 2 2 0 0 0-.5 1.4zM327.5 150.1h4.5v16.5h-4.5v-6.7H323v6.7h-4.5v-16.5h4.5v6h4.5zM341.9 159.7v-2.9a7 7 0 0 1 2-5.4 7.6 7.6 0 0 1 5.3-1.8 17.2 17.2 0 0 1 4.8.8l-.9 3.6a14.1 14.1 0 0 0-3.6-.6 3.2 3.2 0 0 0-2.3.8 3.7 3.7 0 0 0-.8 2.6v2.9a3.7 3.7 0 0 0 .8 2.6 3.2 3.2 0 0 0 2.3.8 13.4 13.4 0 0 0 3.6-.6l1 3.6a18.4 18.4 0 0 1-4.8.8 7.6 7.6 0 0 1-5.3-1.8q-2.1-1.6-2.1-5.4zM363.4 166.5V150h4.5v6.1l2.1-.5a2.6 2.6 0 0 0 1.2-1.7l1-3.9h4.4l-1.3 5a7.9 7.9 0 0 1-.8 2.2 3.7 3.7 0 0 1-1.2 1.3l4.2 8h-5l-3.1-6.5-1.4.3v6.2zM399.9 150.1v16.5h-4.4v-6.1l.2-3.2-5.8 9.3H386v-16.5h4.4v6.2l-.2 3.1 5.8-9.3zM424.1 150.1v16.5h-4.4v-6.1l.2-3.2-5.8 9.3h-3.8v-16.5h4.4v6.2l-.2 3.1 5.8-9.3zm-5.4-6.7l2.8.3a3.5 3.5 0 0 1-1.3 3 4.7 4.7 0 0 1-3.1 1.1 4.4 4.4 0 0 1-3-1.1 4.2 4.2 0 0 1-1.3-3l2.8-.3a2.9 2.9 0 0 0 .5 1.3 1.4 1.4 0 0 0 1 .5c.9-.1 1.4-.7 1.6-1.8zM455.7 149.7a5.4 5.4 0 0 1 4.2 1.8 7.3 7.3 0 0 1 1.6 5.1v3.5a6.6 6.6 0 0 1-1.9 5.1 6.5 6.5 0 0 1-4.6 1.8 5.7 5.7 0 0 1-2.8-.8v7h-4.5v-23.1h3.7l.5 1.4a5.2 5.2 0 0 1 1.6-1.4 4.3 4.3 0 0 1 2.2-.4zm-3.5 12.9a6 6 0 0 0 2.4.6q2.4 0 2.4-3.3v-3.1a3.4 3.4 0 0 0-.7-2.4 1.9 1.9 0 0 0-1.7-.8 2.1 2.1 0 0 0-1.7.8 3.6 3.6 0 0 0-.7 2.4v5.8zM470.9 159.8v-3.2a6.6 6.6 0 0 1 1.9-5.1 7.3 7.3 0 0 1 9.6 0 5.9 5.9 0 0 1 1.9 4.6v3.6h-9v.2c0 2.2 1 3.3 2.9 3.3a15.3 15.3 0 0 0 4.5-.8l.9 3.6a14.7 14.7 0 0 1-5.4 1 7.6 7.6 0 0 1-5.4-1.9 6.9 6.9 0 0 1-1.9-5.3zm4.4-3.3h4.5v-.4a2.8 2.8 0 0 0-.6-1.8 2.2 2.2 0 0 0-3.2 0 2.8 2.8 0 0 0-.6 1.8v.4zM493.4 159.7v-2.9a7 7 0 0 1 2-5.4 7.6 7.6 0 0 1 5.3-1.8 17.2 17.2 0 0 1 4.8.8l-.9 3.6a14.1 14.1 0 0 0-3.6-.6 3.2 3.2 0 0 0-2.3.8 3.7 3.7 0 0 0-.8 2.6v2.9a3.3 3.3 0 0 0 .8 2.6 3.2 3.2 0 0 0 2.3.8 13.4 13.4 0 0 0 3.6-.6l1 3.6a18.4 18.4 0 0 1-4.8.8 7.6 7.6 0 0 1-5.3-1.8q-2.1-1.6-2.1-5.4zM517.6 166.5v-12.7h-3.9v-3.7H526v3.7h-3.9v12.7zM534.6 159.7v-2.9a7.2 7.2 0 0 1 2-5.3 7.5 7.5 0 0 1 10.2 0 7.2 7.2 0 0 1 2 5.3v2.9a7.2 7.2 0 0 1-2 5.3 7.5 7.5 0 0 1-10.2 0 7.2 7.2 0 0 1-2-5.3zm4.5-.1c0 2.4.9 3.6 2.5 3.6s2.6-1.2 2.6-3.6v-2.5c0-2.4-.9-3.6-2.6-3.6s-2.5 1.2-2.5 3.6zM566.5 149.7a5.4 5.4 0 0 1 4.2 1.8 7.3 7.3 0 0 1 1.6 5.1v3.5a6.6 6.6 0 0 1-1.9 5.1 6.5 6.5 0 0 1-4.6 1.8 5.7 5.7 0 0 1-2.8-.8v7h-4.5v-23.1h3.7l.5 1.4a5.2 5.2 0 0 1 1.6-1.4 4.3 4.3 0 0 1 2.2-.4zm-3.5 12.9a6 6 0 0 0 2.4.6q2.4 0 2.4-3.3v-3.1a3.4 3.4 0 0 0-.7-2.4 1.9 1.9 0 0 0-1.7-.8 2.1 2.1 0 0 0-1.7.8 3.6 3.6 0 0 0-.7 2.4zM582.8 165.4a5.6 5.6 0 0 1-1.5-4.1 4.6 4.6 0 0 1 1.7-3.8 7.5 7.5 0 0 1 4.7-1.3h2v-.4a2.6 2.6 0 0 0-.5-1.7 2 2 0 0 0-1.5-.6 17.8 17.8 0 0 0-4.6.8l-1-3.6a21 21 0 0 1 5.5-1.1 6.6 6.6 0 0 1 4.7 1.7 5.7 5.7 0 0 1 1.8 4.4v10.8h-3.9l-.3-.9a3.6 3.6 0 0 1-3.1 1.3 5.5 5.5 0 0 1-4-1.5zm3.1-4.1a2.1 2.1 0 0 0 .5 1.3 1.7 1.7 0 0 0 1.4.6 2 2 0 0 0 1.5-.6 1.7 1.7 0 0 0 .5-1.3v-2h-2.1c-1.2 0-1.8.7-1.8 2zM613.5 150.1h4.5v16.5h-4.5v-6.7H609v6.7h-4.5v-16.5h4.5v6h4.5z"/></svg>
